<svg width="239" height="69" viewBox="0 0 239 69" fill="none" xmlns="http://www.w3.org/2000/svg">
<path d="M30.1964 39.3802L25.3208 26.9094H9.59971L4.76841 39.3802H0.158203L15.6693 0H19.4945L34.9171 39.3802H30.1964ZM23.8946 22.8078L19.3397 10.6576C18.7427 9.1209 18.1457 7.24144 17.5156 4.99715C17.1175 6.71077 16.5537 8.60128 15.824 10.6576L11.2138 22.8078H23.8946Z" fill="black"/>
<path d="M69.0909 39.3802L64.2043 26.9094H48.4943L43.6629 39.3802H39.0527L54.5527 0H58.389L73.8116 39.3802H69.0909ZM62.7892 22.8078L58.2343 10.6576C57.6483 9.1209 57.0402 7.24144 56.4101 4.99715C56.0121 6.71077 55.4482 8.60128 54.7186 10.6576L50.1084 22.8078H62.7892Z" fill="black"/>
<path d="M111.065 19.4029C111.065 25.8705 109.308 30.8234 105.792 34.2507C102.276 37.6668 97.2238 39.3805 90.6235 39.3805H79.7559V0.166138H91.7733C97.876 0.166138 102.608 1.85765 105.991 5.24067C109.374 8.6237 111.065 13.3445 111.065 19.4029ZM106.234 19.5577C106.234 14.439 104.941 10.5916 102.387 8.00458C99.8218 5.41756 96.0076 4.113 90.9442 4.113H84.3218V35.4447H89.8828C95.3222 35.4447 99.4017 34.1069 102.144 31.4315C104.885 28.756 106.245 24.7981 106.245 19.5577" fill="black"/>
<path d="M123.981 23.0734V39.3805H119.426V0.166138H130.183C134.992 0.166138 138.552 1.08376 140.841 2.93005C143.14 4.77634 144.29 7.54025 144.29 11.2439C144.29 16.429 141.659 19.9336 136.407 21.7578L147.054 39.3805H141.659L132.173 23.0734H123.992H123.981ZM123.981 19.1597H130.238C133.455 19.1597 135.821 18.5185 137.325 17.2471C138.828 15.9646 139.58 14.052 139.58 11.4982C139.58 8.94431 138.817 7.04274 137.292 5.89296C135.755 4.75423 133.312 4.17933 129.929 4.17933H124.003V19.1708L123.981 19.1597Z" fill="black"/>
<path d="M162.546 0.166138H157.98V39.3805H162.546V0.166138Z" fill="black"/>
<path d="M176.996 39.3805V0.166138H181.551V35.2567H198.853V39.3805H176.996Z" fill="black"/>
<path d="M233.509 39.3803L228.633 26.9096H212.912L208.081 39.3803H203.471L218.982 0.000183105H222.807L238.23 39.3803H233.509ZM227.207 22.808L222.652 10.6578C222.055 9.12108 221.458 7.24162 220.828 4.99733C220.43 6.71095 219.866 8.60147 219.137 10.6578L214.526 22.808H227.207Z" fill="black"/>
<path d="M6.77711 68.5228H4.36698V55.7757H0V53.7083H11.1441V55.7757H6.77711V68.5228Z" fill="black"/>
<path d="M29.2591 68.5232H20.8789V53.7086H29.2591V55.7539H23.3001V59.7892H28.8832V61.8124H23.3001V66.4668H29.2591V68.5232Z" fill="black"/>
<path d="M46.2267 55.5659C44.8337 55.5659 43.7392 56.0634 42.9432 57.0473C42.1472 58.0313 41.7492 59.3911 41.7492 61.1379C41.7492 62.8847 42.125 64.333 42.8989 65.2617C43.6618 66.1903 44.7674 66.6547 46.2267 66.6547C46.8458 66.6547 47.4649 66.5994 48.0509 66.4667C48.6368 66.3451 49.2449 66.1793 49.8861 65.9913V68.0587C48.7253 68.501 47.4096 68.7221 45.9392 68.7221C43.7723 68.7221 42.114 68.0587 40.9421 66.7542C39.7813 65.4386 39.1953 63.5591 39.1953 61.1158C39.1953 59.568 39.4717 58.2303 40.0466 57.0695C40.6104 55.9197 41.4175 55.0352 42.4899 54.4161C43.5623 53.797 44.8116 53.4874 46.2488 53.4874C47.7634 53.4874 49.1564 53.797 50.4389 54.4382L49.5655 56.4614C49.0569 56.2182 48.5263 56.0192 47.9735 55.8423C47.4097 55.6654 46.8347 55.5769 46.2156 55.5769" fill="black"/>
<path d="M72.2307 68.5228H69.7985V61.8452H62.9661V68.5228H60.5449V53.7083H62.9661V59.7667H69.7985V53.7083H72.2307V68.5228Z" fill="black"/>
<path d="M95.9448 68.5232H92.9709L85.6852 56.7158H85.6078L85.6521 57.3791C85.7516 58.6284 85.7958 59.7782 85.7958 60.8174V68.5232H83.5957V53.7086H86.5365L93.8 65.4497H93.8664C93.8553 65.2949 93.8222 64.7311 93.7779 63.7471C93.7448 62.7742 93.7226 62.0114 93.7226 61.4697V53.7086H95.9448V68.5232Z" fill="black"/>
<path d="M120.46 61.0938C120.46 63.504 119.852 65.3834 118.647 66.7211C117.453 68.0589 115.739 68.7333 113.528 68.7333C111.317 68.7333 109.581 68.0699 108.376 66.7433C107.171 65.4166 106.574 63.5261 106.574 61.0828C106.574 58.6395 107.171 56.76 108.387 55.4444C109.592 54.1288 111.317 53.4765 113.55 53.4765C115.784 53.4765 117.453 54.1398 118.658 55.4776C119.863 56.8153 120.471 58.6837 120.471 61.1049M109.139 61.0938C109.139 62.918 109.504 64.3 110.245 65.2397C110.974 66.1794 112.069 66.6548 113.517 66.6548C114.965 66.6548 116.049 66.1905 116.779 65.2618C117.508 64.3331 117.884 62.9401 117.884 61.0938C117.884 59.2475 117.519 57.8988 116.79 56.959C116.071 56.0193 114.988 55.555 113.539 55.555C112.091 55.555 110.996 56.0193 110.256 56.959C109.515 57.8988 109.139 59.2807 109.139 61.0938Z" fill="black"/>
<path d="M131.098 68.5228V53.7083H133.508V66.4443H139.787V68.5228H131.098Z" fill="black"/>
<path d="M162.976 61.0938C162.976 63.504 162.379 65.3834 161.163 66.7211C159.958 68.0589 158.244 68.7333 156.044 68.7333C153.844 68.7333 152.086 68.0699 150.892 66.7433C149.698 65.4166 149.09 63.5261 149.09 61.0828C149.09 58.6395 149.698 56.76 150.903 55.4444C152.097 54.1288 153.833 53.4765 156.066 53.4765C158.299 53.4765 159.969 54.1398 161.174 55.4776C162.379 56.8153 162.987 58.6837 162.987 61.1049M151.666 61.0938C151.666 62.918 152.031 64.3 152.771 65.2397C153.512 66.1794 154.607 66.6548 156.044 66.6548C157.481 66.6548 158.576 66.1905 159.305 65.2618C160.035 64.3331 160.4 62.9401 160.4 61.0938C160.4 59.2475 160.035 57.8988 159.316 56.959C158.587 56.0193 157.503 55.555 156.066 55.555C154.629 55.555 153.523 56.0193 152.782 56.959C152.042 57.8988 151.666 59.2807 151.666 61.0938Z" fill="black"/>
<path d="M179.667 60.4854H185.118V67.9259C184.222 68.2244 183.36 68.4234 182.542 68.545C181.723 68.6666 180.839 68.7329 179.888 68.7329C177.644 68.7329 175.908 68.0696 174.703 66.7429C173.487 65.4163 172.879 63.5368 172.879 61.1267C172.879 58.7165 173.553 56.8703 174.935 55.5325C176.306 54.1837 178.197 53.5093 180.596 53.5093C182.144 53.5093 183.603 53.8078 184.996 54.4048L184.145 56.428C182.951 55.8752 181.746 55.5989 180.54 55.5989C178.959 55.5989 177.71 56.0964 176.793 57.0914C175.864 58.0864 175.411 59.4462 175.411 61.1709C175.411 62.984 175.82 64.366 176.649 65.3057C177.478 66.2454 178.672 66.7208 180.22 66.7208C181.005 66.7208 181.845 66.6213 182.729 66.4334V62.6081H179.667V60.5297V60.4854Z" fill="black"/>
<path d="M198.542 53.7086H196.121V68.5232H198.542V53.7086Z" fill="black"/>
<path d="M218.283 68.5228H209.902V53.7083H218.283V55.7535H212.324V59.7889H217.907V61.812H212.324V66.4665H218.283V68.5228Z" fill="black"/>
<path d="M237.488 64.4988C237.488 65.8144 237.013 66.8536 236.062 67.6054C235.111 68.3572 233.796 68.7331 232.126 68.7331C230.457 68.7331 229.075 68.4677 228.014 67.9481V65.6596C228.688 65.9802 229.407 66.2234 230.17 66.4114C230.932 66.5883 231.629 66.6878 232.292 66.6878C233.254 66.6878 233.962 66.4998 234.415 66.135C234.879 65.7702 235.1 65.2727 235.1 64.6646C235.1 64.1118 234.89 63.6475 234.481 63.2605C234.061 62.8736 233.188 62.4203 231.883 61.8896C230.534 61.3369 229.584 60.7177 229.031 60.0212C228.467 59.3137 228.202 58.4734 228.202 57.4895C228.202 56.2513 228.644 55.2784 229.517 54.5708C230.402 53.8633 231.585 53.4984 233.055 53.4984C234.525 53.4984 235.896 53.808 237.3 54.4271L236.527 56.406C235.211 55.8533 234.028 55.5769 233 55.5769C232.215 55.5769 231.618 55.7538 231.209 56.0965C230.811 56.4392 230.601 56.8925 230.601 57.4453C230.601 57.8322 230.678 58.1639 230.844 58.4292C230.999 58.7056 231.275 58.971 231.64 59.2031C232.005 59.4463 232.679 59.767 233.652 60.176C234.736 60.6293 235.532 61.0494 236.04 61.4474C236.549 61.8344 236.924 62.2766 237.157 62.7741C237.4 63.2716 237.51 63.8465 237.51 64.5209" fill="black"/>
</svg>
