<svg width="102" height="98" viewBox="0 0 102 98" fill="none" xmlns="http://www.w3.org/2000/svg">
<g opacity="0.58">
<mask id="mask0_0_835" style="mask-type:luminance" maskUnits="userSpaceOnUse" x="0" y="8" width="90" height="90">
<path d="M89.4732 8.00439H0V97.4776H89.4732V8.00439Z" fill="white"/>
</mask>
<g mask="url(#mask0_0_835)">
<mask id="mask1_0_835" style="mask-type:luminance" maskUnits="userSpaceOnUse" x="0" y="8" width="90" height="90">
<path d="M89.4732 8.00439H0V97.4776H89.4732V8.00439Z" fill="white"/>
</mask>
<g mask="url(#mask1_0_835)">
<path d="M89.3164 49.0754C91.3395 73.6963 73.0204 95.299 48.3995 97.3222C23.7786 99.3454 2.17587 81.0262 0.152687 56.4053C-1.87049 31.7844 16.4487 10.1817 41.0696 8.15855C65.6905 6.13537 87.2932 24.4545 89.3164 49.0754Z" fill="#B7C5E5"/>
</g>
</g>
</g>
<g opacity="0.31">
<mask id="mask2_0_835" style="mask-type:luminance" maskUnits="userSpaceOnUse" x="68" y="12" width="34" height="35">
<path d="M101.998 12.9572H68.7422V46.2125H101.998V12.9572Z" fill="white"/>
</mask>
<g mask="url(#mask2_0_835)">
<mask id="mask3_0_835" style="mask-type:luminance" maskUnits="userSpaceOnUse" x="68" y="12" width="34" height="35">
<path d="M101.998 12.957H68.7422V46.2124H101.998V12.957Z" fill="white"/>
</mask>
<g mask="url(#mask3_0_835)">
<path d="M101.934 28.2247C102.686 37.3788 95.8754 45.4052 86.7214 46.1569C77.5673 46.9087 69.5409 40.0985 68.7891 30.9444C68.0374 21.7903 74.8476 13.7639 84.0017 13.0122C93.1558 12.2604 101.182 19.0706 101.934 28.2247Z" fill="#EE6727"/>
</g>
</g>
</g>
<g opacity="0.58">
<mask id="mask4_0_835" style="mask-type:luminance" maskUnits="userSpaceOnUse" x="69" y="0" width="12" height="11">
<path d="M80.2782 0H69.709V10.5692H80.2782V0Z" fill="white"/>
</mask>
<g mask="url(#mask4_0_835)">
<mask id="mask5_0_835" style="mask-type:luminance" maskUnits="userSpaceOnUse" x="69" y="0" width="12" height="11">
<path d="M80.2821 0H69.7129V10.5692H80.2821V0Z" fill="white"/>
</mask>
<g mask="url(#mask5_0_835)">
<path d="M80.2565 4.8536C80.4997 7.76123 78.3328 10.3151 75.4252 10.5583C72.5175 10.7905 69.9637 8.63463 69.7315 5.71594C69.4883 2.80831 71.6552 0.25446 74.5628 0.0222916C77.4705 -0.220932 80.0243 1.94597 80.2565 4.8536Z" fill="#719AD0"/>
</g>
</g>
</g>
<path d="M48.0612 43.6588C47.3868 40.8617 45.6621 38.4848 43.2077 36.9812C40.7423 35.4776 37.8568 35.0133 35.0487 35.6877C32.2516 36.3621 29.8746 38.0757 28.3711 40.5411C26.8675 43.0065 26.4032 45.9031 27.0776 48.7002C27.752 51.4972 29.4766 53.8742 31.9421 55.3888C33.921 56.6049 36.1874 57.1356 38.4538 56.9477C39.0066 56.8924 39.5483 56.815 40.1011 56.6823C42.8982 56.0079 45.2751 54.2943 46.7787 51.8289C48.2823 49.3635 48.7466 46.4669 48.0722 43.6698M33.3793 53.0008C31.5551 51.8842 30.2727 50.1263 29.7751 48.0479C29.2776 45.9805 29.6204 43.8246 30.748 42.0005C31.8647 40.1763 33.6225 38.8938 35.701 38.3963C36.11 38.2968 36.5191 38.2305 36.9281 38.1973C38.6086 38.0536 40.2891 38.4516 41.7595 39.3582C43.5836 40.4748 44.8661 42.2326 45.3636 44.3111C45.8611 46.3785 45.5184 48.5343 44.4017 50.3585C43.2851 52.1827 41.5162 53.4651 39.4488 53.9626C37.3704 54.4601 35.2256 54.1174 33.4014 53.0008" fill="#403644"/>
<path d="M44.4051 4.11285C43.598 4.3229 42.9347 4.83146 42.5146 5.55008C42.0944 6.26869 41.9728 7.09787 42.1829 7.90493C42.3929 8.70093 42.9126 9.37533 43.6201 9.79544C44.3387 10.2156 45.179 10.3372 45.975 10.1271C46.782 9.91705 47.4454 9.39744 47.8655 8.68988C48.2856 7.97126 48.4072 7.13103 48.1971 6.33503C47.766 4.67668 46.0634 3.67062 44.4051 4.11285Z" fill="white"/>
<path d="M91.2714 58.2632H91.2383C90.5086 58.3185 89.8895 58.7165 89.5357 59.3356C89.1709 59.9657 89.1377 60.7065 89.4583 61.3809C89.8231 62.1437 90.6744 62.6412 91.5257 62.5859C92.2996 62.5528 92.8966 62.1437 93.2725 61.5135C93.6373 60.8834 93.6705 60.1426 93.3499 59.4682C92.9851 58.6943 92.1338 58.2079 91.2825 58.2632" fill="white"/>
<path d="M98.7056 27.1857C98.3076 25.5605 97.3126 24.1785 95.8864 23.3051C94.4602 22.4318 92.7798 22.1664 91.1435 22.5534C87.7826 23.3604 85.7042 26.7435 86.5112 30.1044C86.7655 31.1436 87.263 32.0833 87.9706 32.8572L74.4163 53.2438C72.9459 52.7463 71.3208 52.6357 69.7066 53.0337C67.4845 53.5644 65.5829 54.9464 64.3889 56.9032C64.3447 56.9696 64.3115 57.0469 64.2783 57.1133L39.3147 44.8305L45.3843 11.4203C45.4395 11.4203 45.4948 11.4203 45.5611 11.4203C45.8044 11.3982 46.0587 11.3651 46.3019 11.2987C47.4185 11.0113 48.3472 10.3037 48.9331 9.30872C49.5191 8.31371 49.6738 7.15287 49.3864 6.04731C48.7894 3.75879 46.4345 2.37684 44.135 2.97384C43.0294 3.26129 42.0897 3.96885 41.5148 4.96386C40.9288 5.94781 40.7741 7.10865 41.0615 8.22527C41.3489 9.34189 42.0565 10.2706 43.0515 10.8455C43.2947 11.0002 43.5601 11.0997 43.8254 11.1992L37.59 45.527L36.3629 44.6536L13.8646 76.538C12.6264 76.14 11.2997 76.0737 9.99518 76.3832C8.12678 76.8255 6.55688 77.9753 5.53976 79.6115C4.5337 81.2477 4.23519 83.1825 4.67742 85.0398C5.11964 86.9082 6.26943 88.4892 7.90566 89.4952C9.22128 90.3023 10.7248 90.6561 12.2395 90.5345C12.6043 90.5013 12.9691 90.446 13.334 90.3576C15.2024 89.9153 16.7833 88.7545 17.7894 87.1183C18.7955 85.482 19.094 83.5473 18.6517 81.6899C18.3201 80.319 17.6125 79.1029 16.6064 78.1521L37.6011 48.3904L48.8889 74.9239C48.0376 75.6978 47.6175 76.8918 47.9271 78.0858C48.3251 79.5894 49.7512 80.5733 51.2548 80.4407C51.4317 80.4296 51.6196 80.3964 51.7965 80.3522C52.6146 80.1422 53.3001 79.6225 53.7313 78.8818C54.1624 78.1521 54.284 77.3009 54.0629 76.4717C53.8529 75.6536 53.3333 74.9681 52.6036 74.548C51.9071 74.1389 51.1 74.0173 50.3151 74.1942L39.1047 47.8487L63.2944 59.7445C63.0512 60.9496 63.0622 62.1878 63.3607 63.415C63.8914 65.6482 65.2733 67.5387 67.2302 68.7438C68.8001 69.7167 70.6022 70.1368 72.4153 69.9931C72.8575 69.9489 73.2997 69.8825 73.7309 69.783C77.4124 68.8986 79.9773 65.7477 80.2979 62.1657L88.2248 61.4803C88.2691 61.635 88.3243 61.7788 88.3907 61.9225C88.9656 63.1386 90.2701 63.9014 91.6189 63.8019H91.6742C92.7798 63.7135 93.7637 63.0944 94.3165 62.1436C94.8803 61.1817 94.9246 59.9988 94.4492 58.9817C93.8632 57.7545 92.5697 57.0027 91.2209 57.0912C90.0822 57.1686 89.0872 57.7877 88.5233 58.7495C88.3133 59.1033 88.1806 59.4792 88.1143 59.8772L80.2869 60.5516C80.2427 60.1757 80.1874 59.7887 80.0989 59.4018C79.6125 57.3897 78.4627 55.7203 76.926 54.5594L90.2812 34.4713C91.1878 34.8362 92.1606 34.991 93.1335 34.9136C93.4541 34.8915 93.7748 34.8362 94.0954 34.7588C97.4563 33.9517 99.5347 30.5687 98.7387 27.2078M42.1892 7.90465C41.9791 7.10865 42.1007 6.26842 42.5208 5.5498C42.941 4.83119 43.6043 4.32263 44.4114 4.11257C46.0697 3.67035 47.7723 4.67641 48.2034 6.33475C48.4135 7.14182 48.3029 7.98204 47.8718 8.6896C47.4517 9.40822 46.7883 9.91678 45.9813 10.1268C45.1853 10.3369 44.345 10.2263 43.6264 9.80622C42.9078 9.38611 42.3992 8.71171 42.1892 7.90465ZM15.3903 85.6589C14.7712 86.665 13.8094 87.3615 12.6706 87.6379C11.5319 87.9032 10.349 87.7153 9.35395 87.1072C8.35894 86.4991 7.65138 85.5263 7.37499 84.3875C7.10966 83.2488 7.2976 82.0658 7.90566 81.0708C8.52478 80.0648 9.48662 79.3683 10.6253 79.0919C10.8465 79.0366 11.0786 79.0034 11.2997 78.9813C12.2284 78.9039 13.146 79.125 13.942 79.6225C14.9481 80.2417 15.6446 81.2035 15.921 82.3422C16.1974 83.481 16.0094 84.6639 15.3903 85.6589ZM89.5294 59.3355C89.8942 58.7163 90.5134 58.3294 91.232 58.2741C91.243 58.2741 91.2541 58.2741 91.2762 58.2741C92.1275 58.2188 92.9788 58.7163 93.3436 59.4902C93.6642 60.1536 93.631 60.8943 93.2662 61.5245C92.9014 62.1546 92.2933 62.5637 91.5194 62.5969C90.6681 62.6521 89.8169 62.1546 89.452 61.3918C89.1314 60.7174 89.1646 59.9767 89.5294 59.3465M70.3479 55.7534C70.6464 55.676 70.9449 55.6318 71.2323 55.6097C71.763 55.5655 72.2826 55.6097 72.7912 55.6982L69.972 59.9325L66.7659 58.3626C67.584 57.0469 68.8554 56.1183 70.3479 55.7645M77.3572 60.043C77.4124 60.2973 77.4567 60.5405 77.4788 60.7837L73.1671 61.1596L73.3108 62.7516L77.4345 62.3979C77.0476 64.609 75.3892 66.4995 73.0676 67.0523C71.564 67.4171 70.0051 67.1628 68.6785 66.3558C67.3518 65.5377 66.4231 64.2663 66.0583 62.7627C65.9256 62.1989 65.8703 61.6129 65.9146 61.0491L70.9449 63.5255L75.345 56.9032C76.3179 57.6771 77.0476 58.7716 77.3572 60.0651M93.421 32.028C92.5144 32.2381 91.5858 32.0944 90.7897 31.6079C89.9937 31.1215 89.441 30.3586 89.2198 29.4521C88.7666 27.5837 89.9274 25.7042 91.7958 25.262C92.6913 25.0519 93.6311 25.1957 94.4271 25.6821C95.212 26.1686 95.7758 26.9314 95.9859 27.838C96.4281 29.7064 95.2783 31.5858 93.4099 32.028" fill="#403644"/>
<path d="M13.9452 41.9894C14.6307 42.3874 15.3935 42.5532 16.1674 42.4979C16.3885 42.4758 16.6097 42.4426 16.8197 42.3874C17.7926 42.1331 18.5665 41.525 19.0529 40.7401L27.2894 43.6145L27.809 42.111L19.6057 39.2476C19.6721 38.7722 19.6499 38.2636 19.5173 37.7661C18.9866 35.7429 16.9192 34.5379 14.896 35.0575C13.9231 35.3118 13.105 35.9419 12.5854 36.8153C12.0768 37.6887 11.9331 38.7058 12.1874 39.6898C12.4417 40.6627 13.0718 41.4808 13.9342 42.0004M13.6246 37.4123C13.9784 36.8153 14.5312 36.3842 15.2056 36.2183C15.3604 36.1741 15.5041 36.152 15.6478 36.1409C16.875 36.0414 18.0469 36.8264 18.3675 38.0646C18.7323 39.4466 17.9032 40.8617 16.5212 41.2265C15.8468 41.4034 15.1503 41.3039 14.5533 40.9501C13.9563 40.5964 13.5251 40.0436 13.3482 39.3692C13.1824 38.6948 13.2708 38.0093 13.6246 37.4013" fill="#403644"/>
<path d="M41.7493 39.3581C40.2789 38.4516 38.5985 38.0646 36.9291 38.1973C36.52 38.2304 36.111 38.2968 35.7019 38.3963C33.6234 38.8938 31.8656 40.1762 30.749 42.0004C29.6324 43.8246 29.2896 45.9804 29.7871 48.0478C30.2846 50.1263 31.556 51.8842 33.3913 53.0008C35.2155 54.1174 37.3713 54.4601 39.4387 53.9626C41.5172 53.4651 43.275 52.1827 44.3916 50.3585C45.5082 48.5343 45.851 46.3784 45.3535 44.311C44.856 42.2326 43.5735 40.4747 41.7493 39.3581Z" fill="white"/>
<path d="M39.1484 51.7403C42.1887 50.9443 44.0129 47.8266 43.2169 44.7863C42.4209 41.746 39.3032 39.9219 36.2629 40.7179C33.2226 41.5139 31.3984 44.6316 32.1944 47.6719C32.9904 50.7122 36.1081 52.5363 39.1484 51.7403Z" fill="#CD6028"/>
<path d="M71.2296 55.6099C70.9311 55.632 70.6437 55.6762 70.3452 55.7536C68.8416 56.1184 67.5592 57.0471 66.7521 58.3738C65.934 59.7004 65.6908 61.2593 66.0445 62.7629C66.4094 64.2664 67.338 65.5489 68.6647 66.3559C69.9914 67.163 71.5502 67.4173 73.0538 67.0524C76.1715 66.3007 78.0952 63.1609 77.3544 60.0432C76.6801 57.224 74.0378 55.3777 71.2296 55.6099Z" fill="white"/>
<path d="M70.6976 57.4783C68.6192 58.0201 67.3699 60.1538 67.9116 62.2322C68.4533 64.3107 70.5871 65.5489 72.6655 65.0183C74.744 64.4765 75.9933 62.3428 75.4515 60.2643C74.9098 58.1859 72.7761 56.9477 70.6976 57.4783Z" fill="#3E6EB4"/>
<path d="M50.8551 75.2448C50.8551 75.2448 50.8329 75.2448 50.8219 75.2448C50.1254 75.3001 49.5284 75.676 49.1857 76.273C48.8319 76.8811 48.7987 77.5997 49.1083 78.2409C49.462 78.9706 50.2802 79.457 51.0983 79.4018C51.839 79.3686 52.425 78.9816 52.7677 78.3736C53.1215 77.7655 53.1436 77.0469 52.8451 76.4057C52.4913 75.665 51.6842 75.1896 50.8661 75.2448" fill="white"/>
<path d="M94.5687 25.4389C93.7064 24.9193 92.7003 24.7535 91.7274 24.9856C89.7042 25.4721 88.466 27.5063 88.9414 29.5184C89.1736 30.5024 89.7816 31.3205 90.6329 31.8512C91.4952 32.3708 92.5013 32.5366 93.4742 32.3045C95.4974 31.818 96.7356 29.7838 96.2602 27.7606C96.028 26.7877 95.431 25.9585 94.5687 25.4279" fill="white"/>
<path d="M92.1896 26.9317C91.2167 27.186 90.6418 28.181 90.8961 29.1539C91.1504 30.1268 92.1454 30.7017 93.1183 30.4474C94.0801 30.1931 94.666 29.1981 94.4118 28.2252C94.1575 27.2523 93.1625 26.6774 92.1896 26.9317Z" fill="#CD6028"/>
</svg>
