<svg width="895" height="716" viewBox="0 0 895 716" fill="none" xmlns="http://www.w3.org/2000/svg">
<path d="M2.20117 64.4154L57.771 4.41541L113.331 64.4154L168.891 4.41541L224.451 64.4154L280.021 4.41541L335.581 64.4154L391.141 4.41541L446.701 64.4154L502.271 4.41541L557.831 64.4154L613.391 4.41541L668.951 64.4154L724.521 4.41541L780.081 64.4154L835.641 4.41541L891.201 64.4154" stroke="#979797" stroke-width="6"/>
<path d="M2.20117 156.415L57.8311 96.4154L113.451 156.415L169.081 96.4154L224.701 156.415L280.331 96.4154L335.951 156.415L391.581 96.4154L447.201 156.415L502.831 96.4154L558.451 156.415L614.081 96.4154L669.701 156.415L725.331 96.4154L780.951 156.415L836.581 96.4154L892.201 156.415" stroke="#979797" stroke-width="6"/>
<path d="M2.20117 249.415L57.8311 189.415L113.451 249.415L169.081 189.415L224.701 249.415L280.331 189.415L335.951 249.415L391.581 189.415L447.201 249.415L502.831 189.415L558.451 249.415L614.081 189.415L669.701 249.415L725.331 189.415L780.951 249.415L836.581 189.415L892.201 249.415" stroke="#979797" stroke-width="6"/>
<path d="M2.20117 341.415L57.8311 281.415L113.451 341.415L169.081 281.415L224.701 341.415L280.331 281.415L335.951 341.415L391.581 281.415L447.201 341.415L502.831 281.415L558.451 341.415L614.081 281.415L669.701 341.415L725.331 281.415L780.951 341.415L836.581 281.415L892.201 341.415" stroke="#979797" stroke-width="6"/>
<path d="M2.20117 434.415L57.8311 374.415L113.451 434.415L169.081 374.415L224.701 434.415L280.331 374.415L335.951 434.415L391.581 374.415L447.201 434.415L502.831 374.415L558.451 434.415L614.081 374.415L669.701 434.415L725.331 374.415L780.951 434.415L836.581 374.415L892.201 434.415" stroke="#979797" stroke-width="6"/>
<path d="M3.20117 526.415L58.771 466.415L114.331 526.415L169.891 466.415L225.451 526.415L281.021 466.415L336.581 526.415L392.141 466.415L447.701 526.415L503.271 466.415L558.831 526.415L614.391 466.415L669.951 526.415L725.521 466.415L781.081 526.415L836.641 466.415L892.201 526.415" stroke="#979797" stroke-width="6"/>
<path d="M3.20117 618.415L58.771 558.415L114.331 618.415L169.891 558.415L225.451 618.415L281.021 558.415L336.581 618.415L392.141 558.415L447.701 618.415L503.271 558.415L558.831 618.415L614.391 558.415L669.951 618.415L725.521 558.415L781.081 618.415L836.641 558.415L892.201 618.415" stroke="#979797" stroke-width="6"/>
<path d="M3.20117 711.415L58.771 651.415L114.331 711.415L169.891 651.415L225.451 711.415L281.021 651.415L336.581 711.415L392.141 651.415L447.701 711.415L503.271 651.415L558.831 711.415L614.391 651.415L669.951 711.415L725.521 651.415L781.081 711.415L836.641 651.415L892.201 711.415" stroke="#979797" stroke-width="6"/>
</svg>
